<svg width="96" height="70" viewBox="0 0 96 70" fill="none" xmlns="http://www.w3.org/2000/svg">
<g clip-path="url(#clip0_5582_3037)">
<path d="M17.1223 50.8083C16.9162 50.6022 16.6634 50.4972 16.3639 50.4972C16.0645 50.4972 15.8312 50.6022 15.625 50.8083C15.4189 51.0144 15.3139 51.2672 15.3139 51.5666C15.3139 51.866 15.4189 52.0994 15.625 52.3055C15.8312 52.5116 16.08 52.6166 16.3639 52.6166C16.6478 52.6166 16.9162 52.5116 17.1223 52.3055C17.3284 52.0994 17.4334 51.8505 17.4334 51.5666C17.4334 51.2827 17.3284 51.0144 17.1223 50.8083ZM12.2806 20.0277C11.9967 20.0277 11.7556 20.1327 11.5612 20.3388C11.355 20.5449 11.25 20.7977 11.25 21.0972C11.25 21.3966 11.355 21.6299 11.5612 21.836C11.7556 22.0422 11.9967 22.1472 12.2806 22.1472C12.5917 22.1472 12.8445 22.0422 13.0389 21.836C13.245 21.6299 13.35 21.381 13.35 21.0972C13.35 20.8133 13.245 20.5449 13.0389 20.3388C12.8445 20.1327 12.5917 20.0277 12.2806 20.0277ZM16.3834 20.0277C16.1112 20.0277 15.87 20.1327 15.6639 20.3388C15.4578 20.5449 15.3528 20.7977 15.3528 21.0972C15.3528 21.3966 15.4578 21.6299 15.6639 21.836C15.87 22.0422 16.1112 22.1472 16.3834 22.1472C16.6945 22.1472 16.955 22.0422 17.1612 21.836C17.3556 21.6299 17.4528 21.381 17.4528 21.0972C17.4528 20.7977 17.3556 20.5449 17.1612 20.3388C16.955 20.1327 16.6945 20.0277 16.3834 20.0277Z" fill="#001D34"/>
<path d="M63.0306 53.7833C65.9201 52.8888 68.514 51.2944 70.8084 48.9999C74.5534 45.2549 76.4278 40.7244 76.4278 35.4083C76.4278 33.0361 76.0506 30.8272 75.3001 28.7777M72.9667 22.4972H74.4251M54.0278 8.7305C55.0662 8.61383 56.1278 8.5555 57.2167 8.5555C59.0328 8.5555 60.7828 8.71883 62.4667 9.04161C63.6334 9.25939 64.7651 9.54717 65.8695 9.90883C65.9978 9.95161 66.1301 9.99828 66.2584 10.0449C69.9295 11.3283 73.2506 13.4555 76.214 16.4305C81.464 21.6805 84.089 28.0116 84.089 35.4277C84.089 42.8672 81.464 49.2138 76.214 54.4638C70.9756 59.6866 64.6445 62.2999 57.2167 62.2999C56.1278 62.2999 55.0662 62.2533 54.0278 62.1638M54.0278 8.7305V62.1638M54.0278 8.7305C53.9773 8.74217 53.9306 8.74995 53.8917 8.74995M54.0278 8.7305V2.72217M54.0278 62.1638C53.9773 62.1522 53.9306 62.1444 53.8917 62.1444M54.0278 62.1638V62.3388M65.2473 17.9083C62.7973 16.7805 60.1217 16.2166 57.2167 16.2166C56.2056 16.2166 55.214 16.2866 54.2417 16.4305M54.0278 67.4527V62.3388M54.0278 62.3388C52.589 62.2338 51.1967 62.0277 49.8473 61.7166L49.3417 53.9194C48.0312 53.4411 46.7828 52.8305 45.589 52.0916L38.8028 56.1555C38.1806 55.6227 37.5701 55.0744 36.9751 54.5027C35.369 52.8966 34.0117 51.1777 32.9112 49.3499L37.7723 42.6416C37.5001 41.9805 37.2667 41.2999 37.0723 40.5999L29.3528 39.1999C29.1856 37.9672 29.1001 36.7033 29.1001 35.4083C29.1001 33.5144 29.2751 31.6749 29.6251 29.8861L37.3445 29.3222C37.644 28.4005 38.0056 27.5138 38.4334 26.6583L33.7278 20.2027C34.6495 18.8416 35.7306 17.5388 36.9751 16.2944C37.9356 15.3494 38.9273 14.4861 39.9501 13.7083L46.6778 18.1222C47.3895 17.7216 48.1284 17.3716 48.8945 17.0722L49.1084 9.27495C50.6134 8.88606 52.1923 8.63328 53.8528 8.51661M53.8334 45.6361C51.0723 45.4922 48.7078 44.4305 46.7362 42.4472C44.5973 40.3355 43.5278 37.7727 43.5278 34.7666C43.5278 31.7605 44.5973 29.1588 46.7362 27.0083C48.7078 25.0638 51.0723 24.0216 53.8334 23.8777M65.4417 22.4972H67.1334M70.0306 25.8416V27.1055M70.0306 17.9083V19.2694M22.9362 31.2277H15.4695M29.3528 21.1166H20.0973M23.889 41.3777H13.214M28.8473 51.7805H19.7084" stroke="#001D34" stroke-width="1.55556" stroke-linecap="square" stroke-linejoin="round"/>
<path d="M56.4584 28.3111L60.8528 27.0861V41.7277M57.2556 41.9027H64.489" stroke="#001D34" stroke-width="1.55556" stroke-linecap="square" stroke-linejoin="round"/>
<path d="M61.4751 57.8083L58.154 62.3195L61.7901 66.2783" stroke="#001D34" stroke-width="1.55556" stroke-linecap="square" stroke-linejoin="round"/>
</g>
<defs>
<clipPath id="clip0_5582_3037">
<rect width="73.6167" height="66.2861" fill="white" transform="translate(11.2501 1.94446)"/>
</clipPath>
</defs>
</svg>
