<svg width="96" height="70" viewBox="0 0 96 70" fill="none" xmlns="http://www.w3.org/2000/svg">
<path d="M66.4137 34.3777V37.6638M57.1582 19.4444C57.3798 19.0827 57.6443 18.7327 57.9554 18.3944C58.9276 17.4338 60.1021 16.9555 61.4748 16.9555C62.8476 16.9555 63.9948 17.4338 64.9554 18.3944C65.9276 19.3666 66.4137 20.5411 66.4137 21.9138C66.4137 23.2866 65.9276 24.4338 64.9554 25.3944C64.6715 25.6783 64.3643 25.9311 64.0415 26.1527M64.9359 29.7111C68.6421 29.5555 70.4659 31.1499 70.3998 34.4944V38.3249M70.3998 38.3249C74.2732 38.5427 77.4426 39.2194 79.9082 40.3472C79.9198 40.3472 79.9393 40.3549 79.9665 40.3666C80.1221 40.4444 80.2854 40.5222 80.4526 40.5999M70.3998 38.3249C69.1437 38.2549 67.8176 38.2316 66.4137 38.2588C64.8932 38.2822 63.2871 38.3638 61.5915 38.4999C60.0204 38.6283 58.3754 38.8033 56.6526 39.0249C54.4204 39.3166 52.0598 39.6861 49.5748 40.1449C49.4465 40.1644 49.3143 40.1877 49.1859 40.2149C48.6648 40.3238 48.1476 40.4249 47.6304 40.5261C47.5293 40.5455 47.4282 40.5649 47.3271 40.5844C46.7787 40.6894 46.2304 40.7905 45.6859 40.8877C41.5909 41.6227 37.5543 42.1399 33.5721 42.4433C32.1993 42.5522 30.8304 42.6338 29.4693 42.6844C25.2382 42.8516 21.0693 42.7738 16.9665 42.4511V57.5011C21.3571 58.0805 26.3271 58.2127 31.8804 57.8977M33.5915 7.17495C38.4254 4.20772 43.8659 2.72217 49.9054 2.72217C58.6282 2.72217 66.0715 5.79439 72.2276 11.9388C78.3993 18.1105 81.4832 25.5577 81.4832 34.2805C81.4832 37.0922 81.0437 40.0983 80.1609 43.3027M79.9665 44.2633V40.3627M82.9221 45.9083C83.0309 45.9627 83.1437 46.0133 83.2526 46.0638C86.3443 47.5144 89.4437 47.8838 92.5471 47.1722C91.7187 50.0616 90.0854 52.1383 87.6471 53.3944C88.9421 56.4277 91.0187 58.1699 93.8693 58.6249C90.6298 60.8027 87.0909 61.8955 83.2526 61.9033C79.8926 61.9149 76.2993 61.0944 72.4804 59.4455L74.3082 57.7344M70.9832 53.4722C71.7998 53.5227 72.7682 53.6705 73.8804 53.9077M41.9526 19.3472C41.7309 18.9855 41.4665 18.6355 41.1554 18.2972C40.1832 17.3366 39.0087 16.8583 37.6359 16.8583C36.2632 16.8583 35.1159 17.3366 34.1554 18.2972C33.1832 19.2694 32.6971 20.4438 32.6971 21.8166C32.6971 23.1894 33.1832 24.3366 34.1554 25.2972C34.4393 25.5811 34.7465 25.8338 35.0693 26.0555M61.5915 29.9055V38.0527M56.6526 29.9638V37.9555M17.9971 15.7694L25.4443 14.2527L26.7276 21.9333M18.4054 36.3027C18.3665 35.6377 18.3471 34.9611 18.3471 34.2805V33.8916C18.4054 28.4977 19.6498 23.5977 22.0804 19.1916C22.9476 17.5972 23.9743 16.0805 25.1526 14.6416M13.2137 51.6055C10.5304 49.9994 7.4115 49.5638 3.86094 50.3027C5.10539 47.8916 6.85539 45.8422 9.11095 44.1583C7.74983 41.2688 5.48261 39.4799 2.30539 38.7916C9.52706 35.0855 16.0059 35.0855 21.7498 38.7916L19.5915 40.4444M38.4137 38.4222C38.4254 39.0833 38.6665 39.6588 39.1332 40.1527C39.6271 40.6311 40.2221 40.8722 40.9221 40.8722C41.6221 40.8722 42.2171 40.6311 42.7109 40.1527C43.1893 39.6588 43.4382 39.0833 43.4498 38.4222V30.3722M34.3693 29.3805C31.1026 30.0027 29.4693 32.0561 29.4693 35.5444V42.3305M33.5721 34.4749V41.8444M55.1554 14.2916C55.1554 15.7188 54.6576 16.9361 53.6582 17.9472C52.6471 18.9466 51.4298 19.4444 50.0026 19.4444C48.5754 19.4444 47.3582 18.9466 46.3471 17.9472C45.3476 16.9361 44.8498 15.7188 44.8498 14.2916C44.8498 12.8644 45.3476 11.6549 46.3471 10.6555C47.3582 9.64439 48.5754 9.13883 50.0026 9.13883C51.4298 9.13883 52.6471 9.64439 53.6582 10.6555C54.6576 11.6549 55.1554 12.8644 55.1554 14.2916Z" stroke="#001D34" stroke-width="1.55556" stroke-linecap="square" stroke-linejoin="round"/>
<path d="M73.8804 53.9077C74.6893 54.0827 75.5721 54.3044 76.5327 54.5805C77.7771 54.9383 78.9204 55.3777 79.9627 55.9027V44.2672M38.4138 38.4222V29.9055C38.406 29.7422 38.4021 29.5789 38.4021 29.4194C38.4021 25.5072 40.3738 23.4461 44.321 23.2361H55.5599C59.5071 23.4461 61.5177 25.5072 61.5877 29.4194V29.9055M52.9582 54.9889C54.0821 54.845 54.8327 54.7322 55.206 54.6466C55.5754 54.5611 55.9565 54.4872 56.3415 54.425C56.7343 54.3627 57.3177 54.2344 58.0915 54.0361M39.8915 57.2833C40.4399 57.2133 41.0738 57.1161 41.7971 56.9916" stroke="#001D34" stroke-width="1.55556" stroke-linecap="round" stroke-linejoin="round"/>
<path d="M63.4192 48.3583L65.4803 51.7416L69.3498 52.6555L66.7831 55.6888L67.0748 59.6361L63.4192 58.1194L59.7636 59.6361L60.0553 55.6888L57.4886 52.6555L61.3386 51.7416L63.4192 48.3583ZM49.9442 50.7499L52.7636 55.3777L58.072 56.6416L54.5331 60.7833L54.9414 66.2083L49.9442 64.1472L44.9081 66.2083L45.3164 60.7833L41.797 56.6416L47.0859 55.3777L49.9442 50.7499ZM36.0609 48.3583L38.122 51.7416L41.9914 52.6555L39.4248 55.6888L39.7164 59.6361L36.0609 58.1194L32.4053 59.6361L32.697 55.6888L30.1303 52.6555L33.9803 51.7416L36.0609 48.3583Z" stroke="#001D34" stroke-width="0.777778" stroke-linecap="square" stroke-linejoin="round"/>
<path d="M68.961 60.4916L69.5832 60.025L68.6499 58.7805L68.0277 59.2472C64.4071 61.9383 60.3977 63.7 55.9916 64.5361C55.7894 64.5711 55.5794 64.6061 55.3694 64.6333C55.0582 64.6877 54.7471 64.7344 54.436 64.7694L54.4944 65.625L52.8999 64.9444C50.8077 65.135 48.7932 65.1389 46.8527 64.9639L45.2971 65.6055L45.3749 64.7889C45.0016 64.7461 44.6321 64.6877 44.2666 64.6139C40.6655 63.9877 37.321 62.7433 34.2332 60.8805L34.2527 60.9C33.4905 60.4294 32.7477 59.9316 32.0166 59.4027L31.3944 58.9555L30.4805 60.2194L31.1027 60.6666C31.8649 61.215 32.6427 61.7322 33.436 62.2222C36.6832 64.1822 40.1949 65.4889 43.9749 66.15H43.9944C44.4027 66.2316 44.811 66.2939 45.2194 66.3444C47.7432 66.7022 50.4071 66.745 53.211 66.4805C53.6582 66.4339 54.1055 66.3833 54.5527 66.325C54.9105 66.2822 55.2644 66.2316 55.6221 66.1694C55.6649 66.1694 55.7038 66.1616 55.7388 66.15C55.8244 66.1422 55.906 66.1305 55.9916 66.1111C60.7438 65.2594 65.0682 63.385 68.961 60.4916Z" fill="#001D34"/>
</svg>
