<svg width="96" height="70" viewBox="0 0 96 70" fill="none" xmlns="http://www.w3.org/2000/svg">
<path d="M54.0481 12.4133C54.0909 12.3666 54.1337 12.3161 54.1726 12.2655C54.5187 11.8377 54.8648 11.4255 55.2148 11.0327C59.7765 5.90328 64.8437 3.67495 70.4087 4.35162C79.637 5.70106 84.5254 10.64 85.0698 19.1683C85.4704 31.4183 74.8731 45.4766 53.2781 61.3433M52.3448 61.1722L49.4281 61.1527C48.4287 53.13 43.342 49.2838 34.1642 49.6222C29.5365 48.4555 26.962 45.9783 26.4448 42.1944M26.4448 42.1944H23.6837C18.7059 42.3111 15.0192 40.5688 12.6198 36.9638C10.2748 32.025 10.9398 27.3777 14.6226 23.0222M26.4448 42.1944C26.6276 39.1338 28.1831 36.7616 31.1115 35.0777M14.6226 23.0222C14.572 22.2444 14.6303 21.4161 14.7976 20.5333C15.8087 17.1227 18.3831 15.2755 22.517 14.9916C24.5509 12.4755 27.3665 11.5033 30.9559 12.075C34.1059 8.00328 38.1309 7.23328 43.0309 9.76106C46.3559 7.77384 49.152 7.66884 51.4192 9.44995C51.4426 9.4694 51.4659 9.48884 51.4892 9.50828C51.6137 9.6094 51.7381 9.7144 51.8587 9.82717C52.0142 9.96717 52.1659 10.115 52.3176 10.2744C52.582 10.5583 52.8387 10.8733 53.0837 11.2194C53.1498 11.3088 53.212 11.4061 53.2781 11.5111C53.4065 11.6938 53.5309 11.8805 53.6476 12.075M14.6226 23.0222C14.8287 26.6116 17.267 28.9799 21.9337 30.1194C20.4948 32.1144 20.4948 34.1055 21.9337 36.0888M50.9837 10.0916C48.7942 11.5811 47.8142 13.895 48.0476 17.0333M38.5198 25.1805C39.9198 28.5366 41.7009 30.8272 43.867 32.0444M43.867 32.0444C46.4065 33.4833 49.4787 33.4522 53.0837 31.9472C53.1226 31.92 53.1887 31.9005 53.2781 31.8888M43.867 32.0444C46.7331 33.8838 48.0476 36.3533 47.8142 39.4527M40.6976 17.325C42.8948 17.6477 44.5437 18.4177 45.6365 19.6272C46.7253 20.8405 47.262 22.4972 47.2503 24.5972M31.5392 16.3138C31.5237 17.7994 31.8037 18.9855 32.387 19.8722M32.387 19.8722C33.2037 21.1283 34.6192 21.7816 36.6337 21.8361M32.387 19.8722C29.5248 24.0449 25.7059 25.0911 20.9226 23.0027M46.0837 44.3916C48.0009 45.9083 50.3342 46.4411 53.0837 45.9861M34.1448 30.1194C37.4892 32.8027 38.1231 35.9138 36.0503 39.4527M69.4365 12.7944C74.2704 15.3611 76.6115 18.8105 76.4559 23.1388" stroke="#001D34" stroke-width="1.55556" stroke-linecap="square" stroke-linejoin="round"/>
<path d="M53.492 61.5027V67.2388M53.492 2.72217V61.3472" stroke="#001D34" stroke-width="1.55556" stroke-linecap="square" stroke-linejoin="round"/>
</svg>
