<svg width="96" height="70" viewBox="0 0 96 70" fill="none" xmlns="http://www.w3.org/2000/svg">
<path d="M39.7944 2.74161V62.5138M39.7944 62.5138C41.2449 62.4088 42.6527 62.2105 44.0138 61.9111L44.4805 54.0555C44.8032 53.9388 45.1221 53.8144 45.4332 53.6861C46.4171 53.27 47.3699 52.7722 48.2916 52.1888L55.0971 56.3111C55.731 55.7783 56.3416 55.2144 56.9249 54.6194C58.5466 53.0133 59.9116 51.3022 61.0277 49.4861L56.1471 42.7583C56.4077 42.0855 56.6255 41.3972 56.8082 40.6972L64.586 39.2777C64.7532 38.0449 64.8388 36.7772 64.8388 35.4666C64.8388 33.5611 64.6638 31.7216 64.3138 29.9444L56.5555 29.3611C56.2716 28.4394 55.906 27.5449 55.4666 26.6777L60.1916 20.2027C59.2582 18.8416 58.1694 17.5388 56.9249 16.2944C55.9644 15.3338 54.9688 14.4588 53.9305 13.6694L47.1638 18.0833C46.6077 17.7722 46.0282 17.4922 45.4332 17.2472C45.2777 17.1811 45.1221 17.1188 44.9666 17.0527L44.7527 9.21661C43.2244 8.82772 41.6338 8.57495 39.9888 8.45828M39.7944 62.5138V67.4333M40.0082 45.7527C42.0188 45.6361 43.8271 45.0411 45.4332 43.9638C46.0282 43.5477 46.5921 43.0772 47.1249 42.5444C49.2638 40.4172 50.3332 37.8388 50.3332 34.8055C50.3332 31.7722 49.2638 29.2055 47.1249 27.0666C46.5921 26.5338 46.0282 26.0672 45.4332 25.6666C43.8271 24.5777 42.0188 23.9866 40.0082 23.8972M27.486 13.6111L25.1138 9.11939M25.1138 9.11939L20.1166 11.6083L18.1527 7.6805L28.0305 2.72217L30.0916 6.59161L25.1138 9.11939ZM39.1916 11.9777C38.6471 11.9388 38.0949 11.9194 37.5388 11.9194C34.0777 11.9194 30.8888 12.5688 27.9721 13.8638C26.9882 14.3033 26.0277 14.8244 25.0944 15.4194C24.2777 15.9366 23.4805 16.5199 22.7027 17.1694C22.0805 17.6749 21.4699 18.2272 20.8749 18.8222C20.591 19.1061 20.3188 19.3938 20.0582 19.6777C18.7632 21.0894 17.6744 22.5866 16.7916 24.1694C14.9132 27.5411 13.9721 31.3055 13.9721 35.4666C13.9721 39.6277 14.9132 43.4 16.7916 46.7833C17.6744 48.3661 18.7632 49.8633 20.0582 51.2749C20.3188 51.5588 20.591 51.8466 20.8749 52.1305C21.4699 52.7255 22.0805 53.2855 22.7027 53.8027C23.4805 54.4366 24.2777 55.0161 25.0944 55.5333C26.0277 56.1166 26.9882 56.63 27.9721 57.0694C30.8888 58.3644 34.0777 59.0138 37.5388 59.0138C38.0949 59.0138 38.6471 59.0022 39.1916 58.9749M29.5666 47.4249L39.7944 35.2138L34.4082 22.3416" stroke="#001D34" stroke-width="1.55556" stroke-linecap="square" stroke-linejoin="round"/>
<path d="M77.0109 53.1416C77.2948 53.1416 77.5437 53.0366 77.7498 52.8305C77.9559 52.6244 78.0609 52.3755 78.0609 52.0916C78.0609 51.8077 77.9559 51.5394 77.7498 51.3333C77.5437 51.1272 77.2948 51.0222 77.0109 51.0222C76.7271 51.0222 76.4587 51.1272 76.2526 51.3333C76.0465 51.5394 75.9415 51.7922 75.9415 52.0916C75.9415 52.3911 76.0465 52.6244 76.2526 52.8305C76.4587 53.0366 76.7115 53.1416 77.0109 53.1416ZM78.0221 21.6222C78.0221 21.3227 77.9171 21.07 77.7109 20.8638C77.5048 20.6577 77.2637 20.5527 76.9915 20.5527C76.6804 20.5527 76.4198 20.6577 76.2137 20.8638C76.0193 21.07 75.9221 21.3227 75.9221 21.6222C75.9221 21.9216 76.0193 22.155 76.2137 22.3611C76.4198 22.5672 76.6804 22.6722 76.9915 22.6722C77.2637 22.6722 77.5048 22.5672 77.7109 22.3611C77.9171 22.155 78.0221 21.9061 78.0221 21.6222ZM81.0943 20.5527C80.7832 20.5527 80.5304 20.6577 80.3359 20.8638C80.1298 21.07 80.0248 21.3227 80.0248 21.6222C80.0248 21.9216 80.1298 22.155 80.3359 22.3611C80.5304 22.5672 80.7832 22.6722 81.0943 22.6722C81.3782 22.6722 81.6193 22.5672 81.8137 22.3611C82.0198 22.155 82.1248 21.9061 82.1248 21.6222C82.1248 21.3227 82.0198 21.07 81.8137 20.8638C81.6193 20.6577 81.3782 20.5527 81.0943 20.5527Z" fill="#001D34"/>
<path d="M70.4389 31.7527H77.9055M64.0222 21.6416H73.2778M69.4861 41.9027H80.1611M64.5278 52.3055H73.6667" stroke="#001D34" stroke-width="1.55556" stroke-linecap="square" stroke-linejoin="round"/>
</svg>
