<svg width="96" height="70" viewBox="0 0 96 70" fill="none" xmlns="http://www.w3.org/2000/svg">
<g clip-path="url(#clip0_5582_3018)">
<path d="M71.411 50.4778C70.4699 51.3917 70.4699 52.9356 71.411 55.1056C72.3327 57.3767 71.4577 58.59 68.786 58.7417C63.2249 59.045 57.9749 58.0262 53.036 55.6889M49.6527 8.94449C61.6888 11.1806 68.086 17.045 68.8444 26.5417C68.8444 27.3817 68.8133 28.1245 68.7549 28.7662C68.7005 29.4078 69.1244 30.2789 70.0266 31.3795L75.3349 37.7962C76.3771 39.1923 75.9727 40.2306 74.1294 40.9073C72.5194 41.6462 72.1655 42.6962 73.0599 44.0573M49.186 2.33337V67.6473M49.186 56.5639H42.6721C42.4116 54.1645 40.4166 51.6678 36.691 49.07C36.3605 48.86 36.0338 48.6384 35.7071 48.4089C35.6255 48.3506 35.5438 48.2923 35.466 48.2339C34.5521 47.5612 33.6771 46.8067 32.8294 45.9667C28.5633 41.7395 26.4321 36.6334 26.4321 30.6445C26.4321 24.6556 28.5633 19.5339 32.8294 15.2834C37.1071 11.0562 42.2677 8.94449 48.3071 8.94449C48.6027 8.94449 48.8944 8.95226 49.1821 8.96393M34.1944 5.83337L36.1388 8.36115M23.111 28.9723H19.8055M33.611 50.8473L31.2777 53.0834M57.6249 57.75C54.9921 60.1495 55.1477 62.6384 58.0916 65.2167" stroke="#001D34" stroke-width="1.55556" stroke-linecap="square" stroke-linejoin="round"/>
<path d="M73.0639 44.0612C73.7134 45.1812 73.2272 45.99 71.6056 46.4917C72.9822 48.125 72.92 49.455 71.4111 50.4778" stroke="#001D34" stroke-width="1.55556" stroke-linecap="round" stroke-linejoin="round"/>
<path d="M48.525 66.8695H43.7417V64.1472H48.525M44.1889 61.6584H48.525M44.1889 59.2861H48.525" stroke="#001D34" stroke-width="1.16667" stroke-linecap="square" stroke-linejoin="round"/>
<path d="M46.6194 26.2111C46.1916 26.5884 45.7249 26.9772 45.2116 27.3778M45.2116 27.3778C45.4255 27.3934 45.6472 27.4089 45.8727 27.4167H45.8844C46.1683 26.9967 46.4133 26.5922 46.6233 26.2111C46.6311 26.2034 46.6388 26.1917 46.6427 26.18C46.4483 26.0906 46.2577 25.9895 46.0788 25.8806M45.2116 27.3778C44.8577 27.3428 44.5194 27.3039 44.2005 27.2495M45.2116 27.3778C44.1499 28.1945 42.8977 29.05 41.4588 29.9445M46.0788 25.8806C45.4022 26.3356 44.7761 26.7945 44.2005 27.2495M46.0788 25.8806C46.4055 25.6589 46.7438 25.4411 47.0977 25.2195C46.9733 25.5228 46.8177 25.8456 46.6388 26.18C47.2299 26.4522 47.8833 26.6467 48.6027 26.7556M44.2005 27.2495C41.4822 26.8139 39.9577 25.5772 39.6194 23.5472C39.5455 20.3078 42.5594 18.2195 48.6611 17.2861M44.2005 27.2495C43.0922 28.14 42.1783 29.0345 41.4588 29.9445M41.4588 29.9445C41.2916 30.1622 41.1322 30.38 40.9805 30.5978M41.4588 29.9445C41.2022 30.1039 40.9377 30.2711 40.6616 30.4422C40.7666 30.4967 40.8755 30.5472 40.9805 30.5978M40.9805 30.5978C41.3616 30.7806 41.7622 30.9595 42.1861 31.1345C43.3955 31.6284 44.2783 32.1106 44.8383 32.5811C44.9627 32.4956 45.0872 32.4061 45.2155 32.3167C44.6672 30.6834 44.8849 29.05 45.8688 27.4167M40.9805 30.5978C39.7866 32.3517 39.3161 34.1367 39.5611 35.9528C39.5961 36.1084 39.6349 36.26 39.6777 36.4117C40.2961 36.4972 40.9883 36.4895 41.7583 36.3845C41.7855 36.3806 41.8166 36.3767 41.8477 36.3728M46.0749 25.8806C45.1766 25.3439 44.4494 24.5856 43.8972 23.6056C43.1777 22.0578 43.6094 21.1478 45.1999 20.8834C46.0361 20.8445 46.7166 21.2995 47.2416 22.2445C47.6461 23.0222 47.5955 24.0139 47.0938 25.2195C47.6344 24.8889 48.2022 24.5584 48.7972 24.2278M41.8477 36.3728C41.7116 35.3384 42.7111 34.0745 44.8422 32.5811C45.7172 33.32 45.7949 34.0278 45.0638 34.7084C44.0372 35.6222 42.9638 36.1745 41.8477 36.3728ZM41.8477 36.3728C41.9722 37.3411 43.1038 38.1111 45.2388 38.675M45.2388 38.675C45.5733 37.8311 46.5338 37.0534 48.1244 36.3534M45.2388 38.675C46.2538 38.9395 47.4983 39.1611 48.9722 39.3361M45.2388 38.675C44.6672 40.1139 45.9427 41.7628 49.0694 43.6139M48.1244 36.3534C46.6388 35.0078 45.6705 33.6622 45.2194 32.3167C46.2227 31.64 47.4477 30.9206 48.8944 30.1584M48.1244 36.3534C48.4316 36.2134 48.7855 36.0811 49.1861 35.9528M48.1244 36.3534C48.4238 36.6217 48.7466 36.89 49.0888 37.1622M45.8805 27.4167C46.8022 27.4595 47.8288 27.4322 48.9527 27.3389M49.3416 44.6056C49.2911 44.5861 49.2366 44.5667 49.1861 44.5472C43.7961 42.5717 40.6266 39.8572 39.6777 36.4078C38.7872 36.2834 38.0483 35.9645 37.4611 35.4472C36.5822 34.6539 37.6477 32.9856 40.6577 30.4384C39.5688 29.9017 38.6666 29.3378 37.9549 28.7467C36.5355 30.5784 34.4472 31.3561 31.6822 31.0878M31.6822 31.0878C31.6588 31.3445 31.5538 31.5661 31.3711 31.7489C31.1649 31.955 30.9122 32.06 30.6127 32.06C30.3133 32.06 30.0605 31.955 29.8544 31.7489C29.6483 31.5428 29.5433 31.29 29.5433 30.9906C29.5433 30.6911 29.6483 30.4384 29.8544 30.2322C30.0605 30.0261 30.3133 29.9211 30.6127 29.9211C30.9122 29.9211 31.1649 30.0261 31.3711 30.2322C31.5772 30.4384 31.6822 30.6911 31.6822 30.9906V31.0878ZM37.9588 28.7506L37.9472 28.7389C35.3222 26.4989 35.1783 25.1572 37.5194 24.7139C39.1255 24.535 39.6661 25.1689 39.1333 26.6195C38.8144 27.44 38.4216 28.1517 37.9588 28.7506Z" stroke="#001D34" stroke-width="0.388889" stroke-linecap="round" stroke-linejoin="round"/>
<path d="M49.186 22.4972H50.8583C52.0055 22.6255 52.9777 23.275 53.7749 24.4416C54.3466 25.1222 54.9144 25.5616 55.486 25.7639M55.486 25.7639H56.6527C58.3366 25.7172 59.6316 26.4405 60.5416 27.9416C61.1094 28.9022 61.8327 29.4544 62.7194 29.5944M55.486 25.7639H49.3027M62.7194 29.5944H66.4138M62.7194 29.5944H54.9999M66.4138 29.5944L65.3444 28.7194M66.4138 29.5944L65.3444 30.4694M49.186 32.7639H50.0027C51.4649 32.8727 52.5033 32.3866 53.1138 31.3055C53.6699 30.415 54.296 29.8472 54.9999 29.5944M54.9999 29.5944H49.5944" stroke="#001D34" stroke-width="0.777778" stroke-linecap="round" stroke-linejoin="round"/>
</g>
<defs>
<clipPath id="clip0_5582_3018">
<rect width="57.6528" height="66.8694" fill="white" transform="translate(19.0278 1.55554)"/>
</clipPath>
</defs>
</svg>
